<?xml version="1.0" encoding="UTF-8"?>
<svg id="_레이어_1" data-name="레이어 1" xmlns="http://www.w3.org/2000/svg" viewBox="0 0 2834.65 2834.65">
  <defs>
    <style>
      .cls-1 {
        fill: #000fff;
        stroke-width: 0px;
      }
    </style>
  </defs>
  <polygon class="cls-1" points="1256.07 1267.62 1256.07 1388.79 2832.69 1388.79 2832.69 1267.62 2832.69 1266.58 1256.07 1266.58 1256.07 1267.62"/>
  <path class="cls-1" d="M782.17,984.88H63.52c-11.9,39.49-21.98,79.96-30.53,121.17h690.5c16.09-42.86,35.93-83.18,58.68-121.17Z"/>
  <path class="cls-1" d="M1028.37,742.54H162.58c-20.71,39.15-39.57,79.57-56.49,121.17h767.31c45.04-47.57,97.2-87.97,154.97-121.17Z"/>
  <path class="cls-1" d="M1965.94,863.71h767.9c-16.87-41.66-35.88-82-56.58-121.17h-864.28c57.18,33.06,108.55,73.55,152.96,121.17Z"/>
  <path class="cls-1" d="M2511.73,500.19H328.8c-33.35,38.49-64.59,78.82-93.26,121.17h2369.13c-28.64-42.28-59.61-82.76-92.93-121.17Z"/>
  <path class="cls-1" d="M2248.17,269.33H591.43c-55.23,36.67-107.2,77.13-155.66,121.17h1968.71c-48.61-44.09-100.9-84.48-156.3-121.17Z"/>
  <path class="cls-1" d="M1419.07,32.17c-230.44,0-441.98,45.26-627.54,127.48h1256.1c-186.2-82.33-398.29-127.48-628.56-127.48Z"/>
  <path class="cls-1" d="M681.5,1267.62H8.39c-3.78,39.74-5.71,80.23-6.44,121.17h668.65c1.2-41.52,4.64-82.05,10.9-121.17Z"/>
  <path class="cls-1" d="M679.35,1550.35H7.1c3.46,41.1,8.66,81.45,15.28,121.17h682.69c-11.35-38.83-19.82-79.31-25.72-121.17Z"/>
  <path class="cls-1" d="M1256.07,1671.53h1561.42c6.41-37.97,11.68-76.46,15.2-115.67v-5.5h-1576.62v121.17Z"/>
  <path class="cls-1" d="M772.96,1833.09H58.61c11.92,41.4,25.73,81.76,41.16,121.17h759.33c-32.7-36.85-61.44-77.37-86.13-121.17Z"/>
  <path class="cls-1" d="M2010.23,1954.27h729.1c15.52-39.39,29.31-79.8,41.32-121.17h-687.92c-23.87,44.5-51.45,84.85-82.5,121.17Z"/>
  <path class="cls-1" d="M1419.07,2191.39c-128.96,0-244.77-27.28-345.24-75.56H175.88c23.33,41.96,48.82,82.38,76.37,121.17h2333.87c27.69-38.85,53.51-79.17,76.96-121.17h-865.33c-106.89,50.1-233.52,75.56-378.68,75.56Z"/>
  <path class="cls-1" d="M527.2,2519.74h1783.49c49.41-37.22,95.88-77.68,139.16-121.17H388.11c43.23,43.53,89.72,83.94,139.09,121.17Z"/>
  <path class="cls-1" d="M1419.07,2802.48c224.16,0,430.46-43,612.44-121.17H806.48c181.98,78.11,388.26,121.17,612.59,121.17Z"/>
</svg>